<?xml version="1.0" standalone="no"?>
<!DOCTYPE svg PUBLIC "-//W3C//DTD SVG 20010904//EN"
 "http://www.w3.org/TR/2001/REC-SVG-20010904/DTD/svg10.dtd">
<svg version="1.0" xmlns="http://www.w3.org/2000/svg"
 width="700.000000pt" height="700.000000pt" viewBox="0 0 700.000000 700.000000"
 preserveAspectRatio="xMidYMid meet">
<metadata>
Created by potrace 1.11, written by Peter Selinger 2001-2013
</metadata>
<g transform="translate(0.000000,700.000000) scale(0.100000,-0.100000)"
fill="#000000" stroke="none">
<path d="M3145 6413 c-148 -29 -250 -161 -239 -307 7 -99 31 -135 214 -319 94
-94 169 -175 167 -180 -1 -5 -588 -594 -1303 -1310 -1026 -1027 -1305 -1312
-1322 -1348 -31 -68 -34 -142 -9 -219 21 -63 26 -69 405 -448 l384 -385 -381
-381 c-401 -402 -415 -419 -425 -518 -6 -53 13 -134 42 -180 55 -88 141 -136
246 -136 127 1 123 -2 545 419 209 209 382 379 385 379 3 0 174 -169 381 -376
419 -418 427 -424 552 -425 46 -1 103 15 143 39 14 8 612 602 1330 1319 l1305
1303 165 -165 c130 -130 178 -172 228 -197 245 -122 505 140 383 386 -26 53
-113 144 -660 690 l-630 629 171 171 c127 127 177 184 194 221 91 198 -57 421
-272 410 -106 -5 -141 -28 -331 -217 -95 -95 -175 -170 -177 -168 -3 3 -292
291 -643 640 -590 588 -642 637 -691 654 -53 18 -119 26 -157 19z"/>
</g>
</svg>
